<svg width="191" height="192" viewBox="0 0 191 192" fill="none" xmlns="http://www.w3.org/2000/svg">
<path d="M25.6676 24.5417C29.5006 24.1924 160.219 22.1013 161.965 25.9342C163.707 29.7672 161.616 187.326 157.434 189.072C153.251 190.814 27.4142 192.556 25.6676 190.814C23.9211 189.072 21.8346 24.891 25.6676 24.5417Z" fill="white"/>
<g opacity="0.24" style="mix-blend-mode:multiply">
<path d="M32.2716 27.8604C35.675 26.6236 153.355 22.2478 154.63 26.7841C155.904 31.3252 160.105 182.369 154.998 182.369C149.89 182.369 34.5091 187.161 31.5305 183.446C28.5519 179.731 28.8634 29.0971 32.2716 27.8604Z" fill="#433A61"/>
</g>
<path d="M36.4348 27.2758C39.7627 26.0532 154.724 21.7293 155.97 26.2137C157.216 30.6981 161.318 179.873 156.329 179.873C151.339 179.873 38.6204 184.603 35.7079 180.935C32.8001 177.267 33.1022 28.4984 36.4301 27.2758H36.4348Z" fill="white"/>
<path opacity="0.13" d="M36.4348 27.2758C39.7627 26.0532 154.724 21.7293 155.97 26.2137C157.216 30.6981 161.318 179.873 156.329 179.873C151.339 179.873 38.6204 184.603 35.7079 180.935C32.8001 177.267 33.1022 28.4984 36.4301 27.2758H36.4348Z" fill="#433A61"/>
<path d="M34.4711 27.7425C37.8085 26.5483 153.232 22.3376 154.483 26.7088C155.734 31.0799 159.855 176.507 154.847 176.507C149.838 176.507 36.6661 181.119 33.7442 177.541C30.8222 173.962 31.1291 28.9368 34.4711 27.7425Z" fill="white"/>
<g opacity="0.1" style="mix-blend-mode:multiply">
<path d="M31.7805 124.7C31.941 152.659 32.5877 176.125 33.7442 177.536C36.6662 181.114 149.838 176.502 154.847 176.502C157.065 176.502 157.49 148.005 157.174 115.859C107.274 174.118 59.277 149.256 31.7852 124.7H31.7805Z" fill="#FDC333"/>
</g>
<path opacity="0.13" d="M70.8843 23.8106C70.6388 26.5579 70.4217 30.6835 71.2808 30.8724C72.5742 31.1603 122.559 32.4537 122.705 31.014C122.785 30.2068 123.092 26.6853 123.347 23.7492C107.014 23.584 87.8778 23.6548 70.889 23.8059L70.8843 23.8106Z" fill="#433A61"/>
<path d="M120.001 17.5267C119.614 14.6331 105.523 16.3702 105.523 16.3702C105.523 16.3702 107.841 11.933 107.067 6.33458C106.292 0.736157 97.6116 -2.15747 91.6261 1.89738C85.6453 5.95223 90.4696 14.4443 90.4696 14.4443C90.4696 14.4443 77.5404 14.4443 75.0291 16.3749C72.5178 18.3056 72.5178 28.5347 72.5178 28.5347L119.802 29.1154C119.802 29.1154 120.383 20.4298 119.996 17.5362L120.001 17.5267ZM96.9035 14.2838C91.6355 13.722 92.405 4.36144 98.8861 5.81534C105.367 7.26923 103.12 14.9446 96.9035 14.2838Z" fill="#433A61"/>
<path d="M60.0178 113.249C60.9619 112.871 76.0531 111.738 76.4308 112.871C76.8084 114.004 77.3748 128.057 76.0531 128.34C74.7314 128.623 60.8675 129.095 60.2067 128.34C59.5458 127.584 59.0738 113.626 60.0178 113.249Z" stroke="#433A61" stroke-width="4" stroke-miterlimit="10"/>
<path d="M59.7348 134.391C60.3013 133.919 76.3365 133.163 76.5254 134.013C76.7142 134.863 76.2421 148.349 75.5813 148.632C74.9204 148.916 60.1124 149.482 59.6404 148.821C59.1684 148.16 59.1684 134.863 59.7348 134.391Z" stroke="#433A61" stroke-width="4" stroke-miterlimit="10"/>
<path d="M60.0134 155.25C60.8631 155.156 75.2934 155.062 75.5767 155.722C75.8599 156.383 75.4823 170.436 75.0102 170.436C74.5382 170.436 59.7302 170.53 59.447 170.153C59.1638 169.775 59.1638 155.345 60.0134 155.25Z" stroke="#433A61" stroke-width="4" stroke-miterlimit="10"/>
<path d="M62.1519 118.096C62.1519 118.096 66.32 125.375 67.6889 124.464C69.0578 123.553 81.1846 107.933 80.2736 107.631C79.3625 107.329 77.5452 106.644 77.5452 106.644C77.5452 106.644 67.3868 122.339 67.08 121.731C66.7779 121.126 64.5026 116.878 63.8937 116.802C63.2895 116.727 62.1519 118.091 62.1519 118.091V118.096Z" fill="#00AE1A"/>
<path d="M62.1519 161.278C62.1519 161.278 66.32 168.557 67.6889 167.646C69.0578 166.735 81.1846 151.115 80.2736 150.813C79.3625 150.511 77.5452 149.827 77.5452 149.827C77.5452 149.827 67.3868 165.522 67.08 164.913C66.7779 164.309 64.5026 160.061 63.8937 159.985C63.2895 159.909 62.1519 161.274 62.1519 161.274V161.278Z" fill="#00AE1A"/>
<path d="M65.4846 143.02C65.4846 143.02 62.8317 139.154 63.2094 138.621C63.587 138.092 64.0449 137.407 64.5736 137.483C65.1023 137.559 67.2265 140.594 67.2265 140.594C67.2265 140.594 74.3543 131.875 75.1898 131.951C76.0253 132.026 76.7806 133.999 76.7806 133.999C76.7806 133.999 68.4396 142.491 68.973 142.642C69.5017 142.794 73.2167 146.131 72.7635 146.508C72.3104 146.886 70.4127 147.797 70.4127 147.797L67.9864 144.535C67.9864 144.535 64.5736 148.552 64.0449 148.401C63.5162 148.25 62.4541 146.579 62.4541 146.579L65.4846 143.015V143.02Z" fill="#E70407"/>
<path d="M82.8882 114.782L137.319 114.805V115.712L82.9968 115.938L82.8882 114.782Z" fill="#433A61"/>
<path d="M82.8176 119.135L137.249 119.159V120.065L82.9262 120.292L82.8176 119.135Z" fill="#433A61"/>
<path d="M82.8882 137.469L137.319 137.493V138.394L82.9968 138.626L82.8882 137.469Z" fill="#433A61"/>
<path d="M82.8176 141.821L137.249 141.844V142.746L82.9262 142.977L82.8176 141.821Z" fill="#433A61"/>
<path d="M82.8882 160.15L137.319 160.179V161.08L82.9968 161.307L82.8882 160.15Z" fill="#433A61"/>
<path d="M82.8176 164.502L137.249 164.53V165.432L82.9262 165.658L82.8176 164.502Z" fill="#433A61"/>
<path d="M56.5676 56.4945C56.5676 56.4945 56.3457 48.8804 56.4401 48.8332C56.5345 48.786 57.2096 48.635 57.219 48.7388C57.2284 48.8427 57.219 56.098 57.219 56.098L56.5676 56.4945Z" fill="#F15657"/>
<path d="M47.174 47.4883C47.3061 47.3372 54.958 39.0576 65.0408 46.0863C74.8121 52.9026 69.7235 71.723 54.7125 68.9237C40.622 66.2945 42.6329 52.6241 47.174 47.4883Z" stroke="#433A61" stroke-width="3" stroke-miterlimit="10"/>
<path d="M57.5119 55.9475C58.5363 56.75 57.6158 58.0812 56.464 57.5619C55.3122 57.0427 56.4215 55.0931 57.5119 55.9475Z" fill="#433A61"/>
<path d="M57.1384 56.4149C57.1384 56.4149 62.9682 55.6643 63.0154 55.8201C63.0578 55.9759 63.1003 56.4951 63.1003 56.4951L57.2753 57.1182L57.1384 56.4149Z" fill="#433A61"/>
<path d="M82.0955 48.3662L140.43 48.3945V49.2961L82.2087 49.5227L82.0955 48.3662Z" fill="#433A61"/>
<path d="M75.0857 39.6191C75.6238 39.4114 87.996 39.166 88.1613 39.6191C88.3265 40.0723 88.6144 46.3457 88.2038 46.3457C87.7931 46.3457 75.2509 46.6762 74.9629 46.2655C74.675 45.8548 74.5523 39.8316 75.0857 39.6239V39.6191Z" fill="#433A61"/>
<path d="M76.0156 52.7183L140.346 52.7466V53.6482L76.1383 53.8748L76.0156 52.7183Z" fill="#433A61"/>
<path d="M83.0776 62.3102L121.492 62.1875V63.0938L83.0776 63.4667V62.3102Z" fill="#433A61"/>
<path d="M83.0776 66.6623L121.408 66.5396V67.4459L83.0776 67.8188V66.6623Z" fill="#433A61"/>
<path d="M77.8517 61.6681C73.3532 61.8569 76.8935 69.5276 77.9178 69.5984C78.843 69.6645 82.6099 61.4698 77.8517 61.6681ZM77.9178 65.6332C75.737 65.435 76.058 62.4281 78.1822 62.5933C79.9004 62.7255 80.0987 65.8315 77.9178 65.6332Z" fill="#433A61"/>
<path d="M75.9307 57.0703L140.265 57.0986V58.0002L76.0581 58.2268L75.9307 57.0703Z" fill="#433A61"/>
<path d="M36.7417 96.8115C36.7417 96.8115 69.7988 78.4254 70.6013 79.1854C71.3991 79.9407 78.2484 93.8188 78.4467 93.3325C78.6449 92.8416 99.7735 79.3837 99.7735 79.3837C99.7735 79.3837 94.7888 77.1368 95.6054 76.863C96.4173 76.5892 105.773 76.2163 105.49 77.3397C105.207 78.4632 102.526 84.68 101.766 84.5714C101.006 84.4676 101.124 81.7675 101.124 81.7675C101.124 81.7675 78.6827 99.049 77.5073 98.2371C76.3319 97.4252 69.2607 82.3576 69.2607 82.3576C69.2607 82.3576 38.1201 99.9742 37.9171 99.5588C37.7141 99.1434 36.7511 96.8115 36.7511 96.8115H36.7417Z" fill="#652B82"/>
<path d="M113.982 104.652L121.464 98.5721C121.464 98.5721 117.905 93.0539 121.285 87.9795C124.66 82.905 129.22 82.1309 129.22 82.1309L129.895 71.8403C129.895 71.8403 115.832 73.8276 111.546 84.5336C107.26 95.2395 113.991 104.657 113.991 104.657L113.982 104.652Z" fill="#F15657"/>
<path opacity="0.46" d="M113.982 104.652L121.464 98.5721C121.464 98.5721 117.905 93.0539 121.285 87.9795C124.66 82.905 129.22 82.1309 129.22 82.1309L129.895 71.8403C129.895 71.8403 115.832 73.8276 111.546 84.5336C107.26 95.2395 113.991 104.657 113.991 104.657L113.982 104.652Z" fill="#8D6BFF"/>
<path d="M114.803 106.776L122.578 99.4264C122.578 99.4264 131.24 106.011 138.061 98.0244L145.58 104.303C145.58 104.303 134.364 121.655 114.808 106.776H114.803Z" fill="#A68BB7"/>
<path d="M146.855 103.118L139.463 96.6227C139.463 96.6227 144.835 85.0577 130.976 81.6212L131.962 72.0576C131.962 72.0576 161.394 76.981 146.855 103.123V103.118Z" fill="#F15657"/>
<g opacity="0.64" style="mix-blend-mode:multiply">
<path d="M146.855 103.118L139.463 96.6227C139.463 96.6227 144.835 85.0577 130.976 81.6212L131.962 72.0576C131.962 72.0576 161.394 76.981 146.855 103.123V103.118Z" fill="#010001"/>
</g>
<path d="M171.689 29.0498C171.628 28.1387 171.727 27.2324 171.991 26.3591C172.751 23.8479 175.192 18.9858 182.574 19.8969C192.445 21.1147 192.161 32.3446 186.988 35.9841C182.046 39.463 172.279 37.759 171.689 29.045V29.0498Z" fill="#652B82"/>
<path opacity="0.3" d="M190.509 29.0738C183.702 36.8436 176.098 32.5008 171.679 28.6064C171.679 28.7528 171.679 28.9038 171.689 29.0502C172.279 37.7594 182.045 39.4634 186.988 35.9892C189.065 34.5259 190.349 31.8447 190.509 29.0738Z" fill="#652B82"/>
<path d="M0.328254 80.2669C0.06391 79.3937 -0.0446615 78.4873 0.016704 77.5763C0.19608 74.9565 1.47532 69.6743 8.87222 68.9001C18.7615 67.8664 21.0179 78.8697 16.7978 83.5807C12.7666 88.084 2.86784 88.6174 0.328254 80.2669Z" fill="#652B82"/>
<path opacity="0.3" d="M18.6719 76.0518C13.7909 85.1527 5.40275 82.632 0.219727 79.8375C0.25277 79.9792 0.285814 80.1255 0.328298 80.2671C2.86317 88.6222 12.7619 88.0841 16.7979 83.5808C18.4925 81.6879 19.1392 78.7849 18.6719 76.0518Z" fill="#652B82"/>
<path d="M161.474 50.3395C161.474 50.3395 162.409 44.4342 168.805 45.5105C175.201 46.5867 174.701 53.8939 171.227 56.122C167.752 58.35 160.997 56.7215 161.474 50.3442V50.3395Z" fill="#652B82"/>
<g opacity="0.61" style="mix-blend-mode:overlay">
<path d="M162.46 50.5566C162.46 50.5566 163.239 45.6143 168.597 46.5112C173.95 47.4128 173.53 53.5304 170.622 55.3903C167.714 57.2548 162.059 55.8954 162.46 50.5518V50.5566Z" fill="#652B82"/>
</g>
</svg>
