<svg width="86" height="110" viewBox="0 0 86 110" fill="none" xmlns="http://www.w3.org/2000/svg">
<path d="M63.928 99.5831L36.4803 103.444C25.5681 100.515 17.4949 95.3267 12.2698 87.8814C6.9992 80.5969 5.48331 72.524 7.72209 63.6626C8.39372 61.0041 9.23917 58.5858 10.2652 56.3998C11.2856 54.2171 12.4834 52.2036 13.8473 50.3661C15.4754 48.1646 17.3351 46.0121 19.4322 43.9052C21.5282 41.8029 24.0545 39.4742 27.0113 36.9194C24.4148 35.3207 22.5201 33.4064 21.3318 31.1777C20.1389 28.9479 19.7999 26.8046 20.3181 24.7534C20.5011 24.0292 20.9469 23.0603 21.6644 21.8491C22.3775 20.6367 23.2606 19.3381 24.3173 17.9589C25.3751 16.5753 26.5612 15.1761 27.8869 13.7549C29.2081 12.3325 30.6034 11.0149 32.0681 9.80099C34.2478 7.95425 36.3554 6.60131 38.3953 5.74331C40.4297 4.88868 42.3746 4.69097 44.2278 5.15918C45.5548 5.49443 46.7957 6.05676 47.9483 6.83605C49.0997 7.61984 50.163 8.54407 51.1348 9.6031C52.1112 10.6633 52.9826 11.8357 53.7491 13.1204C54.5155 14.4051 55.1841 15.6985 55.7547 17.0007L55.0746 17.6663C54.1779 17.1431 53.3046 16.7358 52.4557 16.4592C51.6023 16.1814 50.5532 15.8828 49.3072 15.568C47.5754 15.1305 45.3299 14.946 42.5683 15.0235C39.8079 15.0965 36.7321 15.7359 33.3478 16.9338C31.985 17.403 30.9674 18.0025 30.2905 18.7311C29.6135 19.4597 29.1582 20.2012 28.9245 20.9557C28.5783 22.1555 29.2519 23.6942 30.9396 25.5754C32.6273 27.4565 35.2581 29.2983 38.8274 31.0997C43.4635 29.7013 47.6499 28.6056 51.3866 27.8126C55.1222 27.024 58.5486 26.5498 61.6738 26.3967L61.8554 26.701C60.9983 27.8961 60.0829 29.0573 59.1135 30.1858C58.1441 31.3143 57.1918 32.3561 56.2633 33.3227C55.3348 34.2892 54.455 35.1388 53.6295 35.8682C52.8028 36.6021 52.0802 37.1708 51.4625 37.5698C49.0597 39.1066 45.6623 40.0906 41.2705 40.5219C34.29 41.1988 28.63 42.9942 24.2962 45.9045C19.9624 48.8149 17.1289 52.9083 15.7959 58.1847C13.8117 66.0385 16.3275 73.3735 23.34 80.2032C30.3331 87.1094 40.514 92.2512 53.8826 95.6287C56.541 96.3004 60.0096 96.9853 64.2895 97.6789L63.9382 99.5809L63.928 99.5831Z" fill="#9652CB"/>
</svg>
